<svg width="58" height="43" viewBox="0 0 58 43" fill="none" xmlns="http://www.w3.org/2000/svg">
<path d="M11.642 34.6475C9.99172 34.6475 8.49146 33.2554 8.49146 31.554C8.49146 29.8525 9.8417 28.4604 11.642 28.4604C13.4423 28.4604 14.7926 29.8525 14.7926 31.554C14.7926 33.2554 13.2923 34.6475 11.642 34.6475ZM50.3487 17.7878C50.0486 15.3129 48.5484 13.3022 46.598 11.7554L45.8479 11.1367L45.2478 11.9101C44.0476 13.3022 43.5975 15.777 43.7475 17.6331C43.8976 19.0252 44.3476 20.4173 45.0978 21.5C44.4977 21.8094 43.7475 22.1187 43.1474 22.4281C41.7972 22.8921 40.447 23.0468 39.0967 23.0468H0.240041L0.0900155 23.9748C-0.210036 26.9137 0.240041 30.0072 1.44025 32.7914L2.04035 33.8741V34.0288C5.64097 40.2158 12.0921 43 19.1433 43C32.6456 43 43.7475 36.9676 48.9984 23.9748C52.449 24.1295 55.8996 23.2014 57.5499 19.7986L58 19.0252L57.2499 18.5612C55.2995 17.3237 52.5991 17.1691 50.3487 17.7878V17.7878ZM30.9953 15.3129H25.1443V21.3453H30.9953V15.3129ZM30.9953 7.73381H25.1443V13.7662H30.9953V7.73381ZM30.9953 0H25.1443V6.03237H30.9953V0V0ZM38.1966 15.3129H32.3456V21.3453H38.1966V15.3129ZM16.4428 15.3129H10.5918V21.3453H16.4428V15.3129V15.3129ZM23.7941 15.3129H17.9431V21.3453H23.7941V15.3129ZM9.24159 15.3129H3.39058V21.3453H9.24159V15.3129V15.3129ZM23.7941 7.73381H17.9431V13.7662H23.7941V7.73381ZM16.4428 7.73381H10.5918V13.7662H16.4428V7.73381V7.73381Z" fill="white"/>
</svg>
