<svg width="64" height="64" viewBox="0 0 64 64" fill="none" xmlns="http://www.w3.org/2000/svg">
<g clip-path="url(#clip0_1_53)">
<path d="M62.7915 29.1454L34.8491 1.21007C34.4673 0.826544 34.0135 0.522216 33.5138 0.314557C33.014 0.106899 32.4782 0 31.9371 0C31.3959 0 30.8601 0.106899 30.3603 0.314557C29.8606 0.522216 29.4068 0.826544 29.0251 1.21007L23.2202 7.04033L30.5803 14.4001C31.4482 14.105 32.3817 14.0596 33.2742 14.2689C34.1668 14.4782 34.9827 14.934 35.6289 15.5842C36.2752 16.2345 36.7259 17.0531 36.9297 17.9469C37.1336 18.8408 37.0823 19.7739 36.7819 20.64L43.8731 27.7054C44.9303 27.3351 46.0825 27.3385 47.1375 27.715C48.1925 28.0916 49.0864 28.8185 49.6702 29.7745C50.254 30.7305 50.4923 31.8578 50.3454 32.9683C50.1984 34.0787 49.6751 35.1052 48.8628 35.8765C48.0504 36.6478 46.9981 37.1172 45.8815 37.2064C44.7649 37.2956 43.6515 36.9992 42.727 36.3666C41.8025 35.7341 41.1228 34.8037 40.8015 33.7306C40.4801 32.6575 40.5364 31.5067 40.9611 30.4702L34.3179 23.8527V41.2603C35.2483 41.7202 36.0087 42.4634 36.4897 43.3831C36.9707 44.3027 37.1475 45.3513 36.9945 46.3778C36.8415 47.4043 36.3666 48.3557 35.6383 49.0951C34.91 49.8345 33.9659 50.3237 32.9418 50.4923C31.9177 50.6608 30.8665 50.5 29.9397 50.033C29.0128 49.566 28.2581 48.8169 27.7842 47.8936C27.3103 46.9703 27.1416 45.9204 27.3025 44.8951C27.4634 43.8698 27.9455 42.9221 28.6795 42.1883C29.1411 41.732 29.6866 41.3691 30.2859 41.1195V23.5519C29.685 23.3025 29.1391 22.9372 28.6795 22.4768C27.9914 21.7897 27.5235 20.9133 27.3354 19.9593C27.1473 19.0053 27.2476 18.0169 27.6235 17.1201L20.3658 9.86266L1.21064 29.0174C0.826912 29.3997 0.522442 29.854 0.314692 30.3543C0.106942 30.8545 0 31.3909 0 31.9325C0 32.4742 0.106942 33.0105 0.314692 33.5108C0.522442 34.011 0.826912 34.4653 1.21064 34.8477L29.1531 62.7894C29.5354 63.1731 29.9897 63.4776 30.49 63.6853C30.9902 63.8931 31.5266 64 32.0683 64C32.6099 64 33.1463 63.8931 33.6465 63.6853C34.1468 63.4776 34.6011 63.1731 34.9835 62.7894L62.7915 34.9821C63.5653 34.208 64 33.1583 64 32.0637C64 30.9692 63.5653 29.9195 62.7915 29.1454Z" fill="white"/>
</g>
<defs>
<clipPath id="clip0_1_53">
<rect width="64" height="64" fill="white"/>
</clipPath>
</defs>
</svg>
