<svg width="100" height="21" viewBox="0 0 100 21" fill="none" xmlns="http://www.w3.org/2000/svg">
<mask id="mask0_1_71" style="mask-type:luminance" maskUnits="userSpaceOnUse" x="0" y="0" width="100" height="21">
<path d="M100 0H0V20.3H100V0Z" fill="white"/>
</mask>
<g mask="url(#mask0_1_71)">
<path d="M66.48 0H83.9V3.22H77V20.14H73.53V3.22H66.53L66.48 0Z" fill="white"/>
<path d="M37.83 0V3.22H23.83V8.4H35.1V11.61H23.87V16.92H37.87V20.14H20.41V3.22V0H37.83Z" fill="white"/>
<path d="M46.53 0H42L58.2 20.15H62.74L54.64 10.09L62.72 0H58.2L52.37 7.28L46.53 0Z" fill="white"/>
<path d="M51.17 14.39L48.9 11.58L42 20.16H46.54L51.17 14.39Z" fill="white"/>
<path fill-rule="evenodd" clip-rule="evenodd" d="M20.53 20.14L4.32 0H0V20.13H3.45V4.3L16.19 20.14H20.53Z" fill="white"/>
<path d="M84.67 20C84.5496 20.0034 84.4299 19.9821 84.318 19.9374C84.2062 19.8927 84.1048 19.8255 84.02 19.74C83.8545 19.5701 83.7618 19.3422 83.7618 19.105C83.7618 18.8678 83.8545 18.6399 84.02 18.47C84.1939 18.3011 84.4275 18.2076 84.67 18.21C84.7886 18.2091 84.9061 18.2315 85.016 18.2762C85.1258 18.3208 85.2257 18.3866 85.31 18.47C85.3958 18.5509 85.464 18.6486 85.5105 18.7569C85.5569 18.8653 85.5806 18.9821 85.58 19.1C85.582 19.2613 85.5405 19.4202 85.46 19.56C85.3735 19.692 85.257 19.8017 85.12 19.88C84.9843 19.9616 84.8283 20.0032 84.67 20Z" fill="white"/>
<path d="M90.57 11.53H92.1V17.43C92.1115 17.9197 91.9906 18.4034 91.75 18.83C91.5129 19.2222 91.1649 19.5354 90.75 19.73C90.3001 19.9422 89.8074 20.0482 89.31 20.04C88.8592 20.043 88.4129 19.951 88 19.77C87.5939 19.6199 87.2445 19.3473 87 18.99C86.7582 18.6041 86.6364 18.1552 86.65 17.7H88.19C88.1849 17.9035 88.2368 18.1045 88.34 18.28C88.435 18.4453 88.578 18.5778 88.75 18.66C88.9362 18.7521 89.1424 18.7968 89.35 18.79C89.5711 18.7989 89.79 18.7433 89.98 18.63C90.1527 18.5231 90.2887 18.3661 90.37 18.18C90.4691 17.9427 90.5169 17.6871 90.51 17.43L90.57 11.53Z" fill="white"/>
<path d="M98.4 13.84C98.3882 13.6732 98.3378 13.5113 98.2527 13.3673C98.1677 13.2233 98.0504 13.101 97.91 13.01C97.5796 12.7984 97.192 12.6936 96.8 12.71C96.5166 12.699 96.2341 12.7467 95.97 12.85C95.7626 12.932 95.58 13.0664 95.44 13.24C95.3217 13.4032 95.2554 13.5984 95.25 13.8C95.2442 13.96 95.2897 14.1177 95.38 14.25C95.4624 14.3845 95.5755 14.4976 95.71 14.58C95.8577 14.6711 96.0154 14.745 96.18 14.8L96.7 14.96L97.5 15.15C97.8177 15.2242 98.1288 15.3246 98.43 15.45C98.7175 15.5725 98.9867 15.734 99.23 15.93C99.4642 16.117 99.6552 16.3523 99.79 16.62C99.9371 16.9146 100.009 17.2409 100 17.57C100.006 18.0316 99.8737 18.4844 99.62 18.87C99.3403 19.2597 98.9553 19.5616 98.51 19.74C97.3925 20.1466 96.1675 20.1466 95.05 19.74C94.5906 19.5621 94.194 19.2525 93.91 18.85C93.628 18.4334 93.4749 17.943 93.47 17.44H95C95.0149 17.7066 95.1128 17.9618 95.28 18.17C95.4497 18.3649 95.6667 18.5129 95.91 18.6C96.1902 18.6949 96.4842 18.7422 96.78 18.74C97.0801 18.7457 97.3787 18.6948 97.66 18.59C97.8935 18.5053 98.1005 18.3604 98.26 18.17C98.4012 17.9941 98.4787 17.7756 98.48 17.55C98.4842 17.3481 98.4129 17.152 98.28 17C98.1305 16.8442 97.95 16.7215 97.75 16.64C97.4884 16.5385 97.2213 16.4517 96.95 16.38L95.95 16.14C95.3399 16.0064 94.7707 15.7287 94.29 15.33C94.0863 15.1493 93.9258 14.9253 93.8203 14.6743C93.7147 14.4234 93.6668 14.1519 93.68 13.88C93.6728 13.4169 93.8167 12.964 94.09 12.59C94.3755 12.2018 94.7633 11.9006 95.21 11.72C95.7153 11.5043 96.2607 11.3986 96.81 11.41C97.3561 11.3975 97.8985 11.5033 98.4 11.72C98.8268 11.9065 99.1961 12.2033 99.47 12.58C99.7341 12.9429 99.8743 13.3812 99.87 13.83L98.4 13.84Z" fill="white"/>
</g>
</svg>
