<svg width="64" height="42" viewBox="0 0 64 42" fill="none" xmlns="http://www.w3.org/2000/svg">
<g clip-path="url(#clip0_1_127)">
<path d="M35.904 42H59.6992C60.4542 42.0003 61.1959 41.8048 61.8496 41.433C62.3376 41.1605 62.7659 40.7955 63.1097 40.359C63.4534 39.9225 63.7058 39.4232 63.8522 38.8901C63.9986 38.3569 64.0362 37.8005 63.9627 37.253C63.8892 36.7055 63.7061 36.1777 63.424 35.7003L47.424 8.69986C47.0419 8.06108 46.4969 7.53156 45.8431 7.16367C45.1892 6.79577 44.4491 6.60226 43.696 6.60226C42.9429 6.60226 42.2028 6.79577 41.549 7.16367C40.8951 7.53156 40.3502 8.06108 39.968 8.69986L35.8848 15.6295L27.9168 2.09779C27.5347 1.46181 26.9908 0.934805 26.3388 0.568721C25.6868 0.202636 24.9491 0.010107 24.1984 0.010107C23.4478 0.010107 22.7101 0.202636 22.058 0.568721C21.406 0.934805 20.8621 1.46181 20.48 2.09779L0.576023 35.7003C0.294806 36.1779 0.112417 36.7056 0.039372 37.253C-0.0336729 37.8003 0.00407082 38.3565 0.150427 38.8894C0.296783 39.4223 0.548857 39.9214 0.892116 40.358C1.23537 40.7946 1.66303 41.1599 2.15042 41.433C2.80413 41.8048 3.54585 42.0003 4.30082 42H19.2384C25.1584 42 29.5168 39.4801 32.5248 34.516L39.8144 22.2001L43.7184 15.6106L55.4368 35.4042H39.8144L35.904 42ZM18.9952 35.3979H8.56962L24.1984 9.00225L32 22.2001L26.7776 31.0196C24.7744 34.2325 22.5152 35.3979 18.9952 35.3979Z" fill="white"/>
</g>
<defs>
<clipPath id="clip0_1_127">
<rect width="64" height="42" fill="white"/>
</clipPath>
</defs>
</svg>
