<svg width="54" height="64" viewBox="0 0 54 64" fill="none" xmlns="http://www.w3.org/2000/svg">
<path d="M49.9195 8.4674C43.9422 -0.0377624 32.1988 -2.55923 23.6808 2.84849L8.79517 12.3456C5.76276 14.2505 3.40548 17.06 2.05631 20.3772C1.61088 21.4749 1.28059 22.6159 1.07076 23.7818C0.891917 24.7597 0.795582 25.7509 0.782777 26.7449C0.742852 29.7401 1.44882 32.6981 2.83707 35.3524C2.52349 35.8324 2.2291 36.3316 1.96032 36.8436C1.69153 37.3555 1.45474 37.8803 1.23715 38.3987C1.02086 38.9345 0.832874 39.4814 0.673983 40.037C0.52039 40.5938 0.385997 41.1569 0.283602 41.7201C-0.144117 44.1176 -0.0875412 46.5765 0.449994 48.9517C0.984368 51.3196 1.98751 53.5566 3.40024 55.5306C9.34554 64.0358 21.1209 66.5572 29.5813 61.1495L44.4925 51.6908C45.493 51.056 46.4258 50.3205 47.2764 49.4957C48.1309 48.6755 48.8947 47.7658 49.5547 46.7822C50.8859 44.8149 51.7925 42.5918 52.2169 40.2546C52.575 38.2975 52.601 36.2942 52.2937 34.3285C52.1468 33.3441 51.9156 32.3742 51.6026 31.4294C51.2898 30.4871 50.9025 29.5712 50.4442 28.6904C50.7578 28.2104 51.0842 27.7112 51.321 27.1992C51.5914 26.6797 51.8328 26.1456 52.0442 25.5993C52.2605 25.0635 52.4484 24.5166 52.6073 23.961C52.7673 23.4042 52.9017 22.8411 53.0041 22.2779C53.2137 21.0845 53.3058 19.8734 53.2793 18.6621C53.254 17.4514 53.1061 16.2463 52.8377 15.0655C52.3098 12.7089 51.3178 10.4811 49.9195 8.5122" fill="#717171"/>
<path d="M22.2537 56.3498C19.9068 56.9597 17.4293 56.8352 15.1554 55.9929C12.8816 55.1507 10.9208 53.6312 9.53754 51.6396C9.11098 51.038 8.74647 50.3948 8.44959 49.7197C8.15467 49.0568 7.92532 48.3666 7.76483 47.659C7.44648 46.2415 7.41818 44.7743 7.68163 43.3456C7.68163 43.2304 7.72003 43.1152 7.74563 43C7.77123 42.8848 7.80323 42.7697 7.82882 42.6545L7.92482 42.3089C7.95682 42.1937 7.99522 42.0849 8.03361 41.9697L8.3216 41.1121L9.08316 41.6817C9.52474 42.0081 9.97911 42.3217 10.4399 42.5905C10.9007 42.8592 11.3806 43.1344 11.8734 43.3776C12.3662 43.6208 12.8526 43.8384 13.3581 44.0176C13.8637 44.1968 14.3757 44.3952 14.9005 44.5488L15.47 44.7152L15.4188 45.2911C15.3922 45.6792 15.4334 46.069 15.5404 46.4431C15.5924 46.6301 15.661 46.8121 15.7452 46.987C15.8292 47.1647 15.9299 47.334 16.046 47.4926C16.2526 47.7888 16.5029 48.0521 16.7884 48.2734C17.0744 48.4972 17.3941 48.6744 17.7355 48.7981C18.0763 48.9249 18.4347 48.9983 18.7979 49.0157C19.1478 49.039 19.4992 49.011 19.841 48.9325C19.9238 48.9128 20.0051 48.8871 20.0842 48.8557L20.3146 48.7661L20.5386 48.6573L20.7562 48.5358L35.6546 39.0386C35.8374 38.9229 36.0088 38.79 36.1666 38.6419C36.317 38.4897 36.4541 38.3248 36.5762 38.1491C36.6972 37.9699 36.8001 37.7791 36.8833 37.5795C36.9606 37.372 37.0184 37.1578 37.0561 36.9395C37.0946 36.7285 37.1118 36.5141 37.1073 36.2996C37.1016 36.084 37.0738 35.8695 37.0241 35.6596C36.9799 35.4385 36.909 35.2236 36.8129 35.0196C36.7244 34.8209 36.615 34.6321 36.4866 34.4565C36.2795 34.1567 36.0269 33.8911 35.7378 33.6693C35.1625 33.2214 34.4629 32.9622 33.7347 32.927C33.3708 32.9085 33.0061 32.9452 32.6532 33.0357C32.5725 33.0555 32.4933 33.0812 32.4164 33.1125L32.186 33.2021L31.9556 33.3109L31.738 33.4389L26.0231 37.0675C25.7927 37.2147 25.5495 37.3555 25.3063 37.4835C25.0631 37.6115 24.8136 37.7331 24.564 37.8419C24.3144 37.9507 24.052 38.0595 23.7896 38.1491C23.5272 38.2387 23.2648 38.3219 23.0024 38.3923C21.8373 38.6929 20.6331 38.8138 19.4314 38.7507C18.2278 38.693 17.0404 38.4491 15.9116 38.0275C14.7931 37.6073 13.7445 37.0204 12.8014 36.2868C11.8528 35.5464 11.0202 34.6685 10.3311 33.6821C9.91006 33.0782 9.54789 32.4353 9.24955 31.7622C8.35319 29.7556 8.0833 27.5251 8.47519 25.3625C8.72472 23.9527 9.26714 22.6109 10.0674 21.4237C10.8677 20.2364 11.9081 19.2303 13.1214 18.4701L28.0326 8.99857C28.263 8.85138 28.4998 8.71059 28.743 8.5826C28.9861 8.4546 29.2357 8.33301 29.4853 8.22421C29.7349 8.11542 29.9909 8.01302 30.2533 7.91703C30.5157 7.82103 30.7717 7.74424 31.0404 7.67384C33.3851 7.06551 35.8599 7.19059 38.1313 8.03222C40.4058 8.87633 42.3668 10.3974 43.7502 12.3904C44.1745 12.981 44.5369 13.6136 44.8317 14.2783C45.1316 14.9421 45.3632 15.6347 45.5229 16.3454C45.8472 17.7681 45.8821 19.2415 45.6253 20.678L45.5485 21.03C45.5485 21.1452 45.4973 21.2603 45.4653 21.3755C45.4333 21.4907 45.4077 21.6123 45.3757 21.7211C45.3437 21.8299 45.3053 21.9515 45.2669 22.0667L44.9853 22.9243L44.2238 22.3547C43.7822 22.0283 43.3278 21.7147 42.8606 21.4395C42.3935 21.1644 41.9199 20.8892 41.4271 20.646C40.4532 20.1599 39.4407 19.7554 38.4001 19.4364L37.8241 19.2701L37.8753 18.7005C37.8945 18.5047 37.8945 18.3075 37.8753 18.1117C37.8567 17.9173 37.8225 17.7247 37.7729 17.5357C37.717 17.3479 37.6486 17.164 37.5681 16.9854C37.4827 16.8084 37.382 16.6393 37.2673 16.4798C37.0604 16.1875 36.81 15.9286 36.525 15.7118C36.2384 15.4957 35.9213 15.3231 35.5842 15.1999C34.9047 14.9513 34.1651 14.9178 33.4659 15.1039C33.3829 15.1227 33.3015 15.1484 33.2227 15.1807L32.9923 15.2703L32.7619 15.379L32.5444 15.507L17.6267 24.9594C17.4432 25.0738 17.2735 25.209 17.1212 25.3625C16.9657 25.5118 16.8262 25.677 16.7052 25.8553C16.5874 26.0331 16.4866 26.2217 16.4044 26.4185C16.3211 26.6245 16.261 26.8391 16.2252 27.0585C16.1898 27.2699 16.1727 27.484 16.174 27.6984C16.188 28.1401 16.288 28.5749 16.4684 28.9784C16.5583 29.1784 16.6676 29.3692 16.7948 29.5479C17.0016 29.8421 17.2519 30.1032 17.5371 30.3223C17.8209 30.546 18.1384 30.7232 18.4779 30.8471C19.1554 31.102 19.895 31.1422 20.5962 30.9623L20.8394 30.8919L21.0697 30.7959C21.1474 30.7661 21.2223 30.7297 21.2937 30.6871L21.5113 30.5655L27.2326 26.9433C27.4633 26.7889 27.7026 26.6479 27.9494 26.5209C28.1926 26.3865 28.4422 26.2649 28.6918 26.1561C28.9413 26.0473 29.2037 25.9449 29.4661 25.8553C29.7285 25.7657 29.9909 25.6825 30.2597 25.6057C32.0138 25.15 33.849 25.1028 35.6242 25.4679C37.3994 25.8329 39.0672 26.6004 40.4992 27.7112C41.4508 28.4482 42.2839 29.3266 42.9694 30.3159C43.3936 30.919 43.758 31.562 44.0574 32.2358C44.6513 33.5736 44.9754 35.0155 45.0109 36.4788C45.0293 37.2078 44.9735 37.9369 44.8445 38.6547C44.7167 39.3559 44.5173 40.0421 44.2494 40.7026C43.9867 41.3766 43.6519 42.0203 43.251 42.6225C42.448 43.8077 41.4087 44.8143 40.1984 45.5791L25.2807 55.0378C25.0439 55.185 24.8072 55.3258 24.564 55.4602C24.3208 55.5946 24.0712 55.7098 23.8152 55.8186C23.5625 55.9342 23.3041 56.0367 23.0408 56.1258C22.7849 56.2154 22.5161 56.2986 22.2537 56.369" fill="white"/>
</svg>
