<svg width="64" height="38" viewBox="0 0 64 38" fill="none" xmlns="http://www.w3.org/2000/svg">
<g clip-path="url(#clip0_1_88)">
<path d="M32 0C23.4667 0 18.1333 4.22363 16 12.6709C19.2 8.44726 22.9333 6.86551 27.2 7.92564C29.632 8.52751 31.3728 10.2761 33.2992 12.2084C36.4352 15.3508 40.0704 19.0063 48 19.0063C56.5333 19.0063 61.8667 14.7827 64 6.33545C60.8 10.5591 57.0667 12.1429 52.8 11.087C50.368 10.4535 48.6272 8.73658 46.7008 6.79793C43.5648 3.64922 39.9296 0 32 0ZM16 19.0063C7.46667 19.0063 2.13333 23.23 0 31.6772C3.2 27.4536 6.93333 25.8697 11.2 26.9256C13.632 27.5275 15.3728 29.2761 17.2992 31.2084C20.4352 34.3571 24.0704 38.0127 32 38.0127C40.5333 38.0127 45.8667 33.789 48 25.3418C44.8 29.5654 41.0667 31.1493 36.8 30.0934C34.368 29.4598 32.6272 27.7429 30.7008 25.8043C27.5648 22.6492 23.9296 19.0063 16 19.0063Z" fill="white"/>
</g>
<defs>
<clipPath id="clip0_1_88">
<rect width="64" height="38" fill="white"/>
</clipPath>
</defs>
</svg>
