<svg width="64" height="66" viewBox="0 0 64 66" fill="none" xmlns="http://www.w3.org/2000/svg">
<g clip-path="url(#clip0_1_115)">
<path d="M6.43772 39.4284C7.71069 39.4284 8.9551 39.0519 10.0136 38.3466C11.0722 37.6412 11.8973 36.6387 12.3848 35.4656C12.8722 34.2926 13.0001 33.0017 12.7522 31.7562C12.5043 30.5107 11.8919 29.3664 10.9922 28.468C10.0925 27.5697 8.94606 26.9575 7.6977 26.709C6.44934 26.4605 5.15514 26.5867 3.97869 27.0717C2.80224 27.5568 1.79635 28.3788 1.08817 29.434C0.379989 30.4892 0.0013117 31.7302 3.40029e-06 33C-0.000866044 33.8439 0.165009 34.6797 0.488145 35.4595C0.811281 36.2394 1.28534 36.9481 1.88323 37.5452C2.48111 38.1422 3.19109 38.6158 3.97258 38.9389C4.75407 39.2621 5.59175 39.4284 6.43772 39.4284Z" fill="white"/>
<path d="M52.5868 66C53.8603 66.0013 55.1057 65.6258 56.1652 64.9209C57.2247 64.2161 58.0509 63.2136 58.5392 62.0403C59.0275 60.867 59.1559 59.5756 58.9082 58.3294C58.6606 57.0833 58.048 55.9384 57.1479 55.0396C56.2478 54.1409 55.1008 53.5286 53.8518 53.2803C52.6028 53.032 51.3081 53.1587 50.1313 53.6446C48.9546 54.1305 47.9488 54.9536 47.2411 56.0098C46.5334 57.066 46.1557 58.3078 46.1557 59.5782C46.1557 61.2802 46.833 62.9126 48.0389 64.1168C49.2448 65.3209 50.8806 65.9982 52.5868 66Z" fill="white"/>
<path d="M52.5868 12.8436C53.86 12.8436 55.1047 12.467 56.1634 11.7613C57.222 11.0557 58.0472 10.0527 58.5344 8.87932C59.0217 7.70589 59.1492 6.41468 58.9008 5.16897C58.6524 3.92326 58.0392 2.77901 57.1389 1.8809C56.2386 0.982796 55.0915 0.371179 53.8427 0.123392C52.5939 -0.124394 51.2995 0.00277864 50.1232 0.488829C48.9468 0.97488 47.9414 1.79798 47.234 2.85404C46.5266 3.9101 46.149 5.15169 46.149 6.4218C46.149 8.12497 46.8273 9.75838 48.0346 10.9627C49.2419 12.167 50.8794 12.8436 52.5868 12.8436Z" fill="white"/>
<path d="M37.2037 17.1204C41.0344 17.1252 44.7354 18.5049 47.6303 21.0073C50.5252 23.5098 52.4208 26.9678 52.9705 30.7494H64C63.5042 24.7098 60.9578 19.0197 56.7815 14.619C55.4089 15.3093 53.8857 15.648 52.3491 15.6045C50.8126 15.561 49.311 15.1368 47.9798 14.3701C46.6486 13.6033 45.5296 12.5181 44.7238 11.2124C43.9179 9.90662 43.4504 8.42132 43.3636 6.8904C41.344 6.42156 39.2773 6.18462 37.2037 6.1842C33.2477 6.17751 29.3391 7.04294 25.7574 8.7186L31.2755 18.2622C33.1672 17.4992 35.1898 17.1114 37.2302 17.1204H37.2037Z" fill="white"/>
<path d="M21.2782 33C21.2763 30.5936 21.8241 28.2184 22.88 26.0547C23.9358 23.891 25.472 21.9958 27.3719 20.5128L21.834 10.9758C20.5271 11.8908 19.3008 12.9153 18.1685 14.0382C15.0236 17.1629 12.7068 21.0186 11.4265 25.2582C12.721 26.093 13.7853 27.238 14.5222 28.5886C15.2591 29.9392 15.6452 31.4524 15.6452 32.9901C15.6452 34.5278 15.2591 36.041 14.5222 37.3916C13.7853 38.7422 12.721 39.8872 11.4265 40.722C12.7068 44.9616 15.0236 48.8173 18.1685 51.942C19.2975 53.0765 20.524 54.11 21.834 55.0308L27.352 45.4938C25.4568 44.0065 23.9251 42.109 22.8729 39.9446C21.8207 37.7801 21.2754 35.4055 21.2782 33Z" fill="white"/>
<path d="M52.9705 35.2506C52.6297 37.6337 51.7504 39.9083 50.3991 41.9027C49.0478 43.8971 47.2598 45.5591 45.1701 46.7631C43.0805 47.9671 40.7439 48.6817 38.3368 48.8528C35.9298 49.024 33.5152 48.6472 31.2755 47.751L25.7509 57.288C29.3336 58.9681 33.2449 59.8359 37.2038 59.829C39.2795 59.8283 41.3483 59.5914 43.3702 59.1228C43.4467 57.5872 43.9075 56.0952 44.7105 54.7829C45.5135 53.4705 46.6332 52.3797 47.9674 51.6099C49.3016 50.8401 50.8078 50.4159 52.3486 50.3759C53.8894 50.3359 55.4157 50.6814 56.7882 51.381C60.9605 46.979 63.5022 41.2888 63.9934 35.2506H52.9705Z" fill="white"/>
</g>
<defs>
<clipPath id="clip0_1_115">
<rect width="64" height="66" fill="white"/>
</clipPath>
</defs>
</svg>
