<svg width="66" height="68" viewBox="0 0 66 68" fill="none" xmlns="http://www.w3.org/2000/svg">
<g clip-path="url(#clip0_1_96)">
<path d="M65.7849 10.064L34.7783 67.1092C34.6351 67.3761 34.4234 67.599 34.1654 67.7543C33.9075 67.9096 33.6128 67.9916 33.3126 67.9916C33.0124 67.9916 32.7178 67.9096 32.4598 67.7543C32.2019 67.599 31.9901 67.3761 31.847 67.1092L0.248768 10.0572C0.080177 9.7732 -0.00376434 9.446 0.00702741 9.11492C0.0178192 8.78383 0.122885 8.46294 0.309605 8.19079C0.496324 7.91863 0.756757 7.70679 1.05962 7.5807C1.36248 7.45461 1.69489 7.41965 2.01693 7.48L33.0572 13.1852C33.2552 13.2192 33.4575 13.2192 33.6555 13.1852L64.0436 7.4868C64.3617 7.43198 64.6886 7.46943 64.9865 7.5948C65.2844 7.72017 65.5411 7.92834 65.7268 8.19519C65.9125 8.46204 66.0197 8.77665 66.036 9.10258C66.0522 9.42851 65.9768 9.75243 65.8185 10.0368L65.7849 10.064Z" fill="white"/>
<path d="M47.8075 1.55954e-07L24.8752 4.6444C24.6917 4.68083 24.5258 4.77911 24.4046 4.9232C24.285 5.06956 24.2144 5.25049 24.2029 5.44L22.7911 29.9676C22.786 30.1024 22.8089 30.2367 22.8583 30.362C22.9117 30.4841 22.9912 30.5926 23.0912 30.6796C23.1913 30.7667 23.3092 30.8301 23.4365 30.8652C23.5643 30.8992 23.6986 30.8992 23.8264 30.8652L30.2133 29.3488C30.3523 29.3186 30.4965 29.324 30.6328 29.3645C30.7692 29.4049 30.8934 29.4792 30.9943 29.5805C31.0951 29.6818 31.1693 29.8069 31.2102 29.9446C31.2511 30.0823 31.2574 30.2281 31.2285 30.3688L29.3124 39.9296C29.2805 40.0753 29.2868 40.2269 29.3306 40.3694C29.3745 40.5119 29.4543 40.6404 29.5623 40.742C29.6703 40.8437 29.8027 40.9151 29.9464 40.9491C30.09 40.9831 30.24 40.9786 30.3814 40.936L34.3278 39.6984C34.4692 39.6558 34.6192 39.6513 34.7628 39.6853C34.9065 39.7193 35.0389 39.7907 35.1469 39.8924C35.2549 39.994 35.3347 40.1225 35.3786 40.265C35.4224 40.4075 35.4287 40.5591 35.3968 40.7048L32.3781 55.76C32.3117 55.9611 32.322 56.1801 32.4071 56.374C32.4921 56.5678 32.6457 56.7225 32.8377 56.8077C33.0297 56.8929 33.2462 56.9024 33.4448 56.8343C33.6434 56.7663 33.8097 56.6257 33.911 56.44L34.2471 55.9028L52.9439 17.442C53.0172 17.2994 53.0494 17.1389 53.0369 16.9787C53.0243 16.8185 52.9674 16.6651 52.8728 16.5361C52.7781 16.407 52.6495 16.3075 52.5016 16.2488C52.3537 16.1902 52.1924 16.1748 52.0363 16.2044L45.4544 17.51C45.3112 17.5357 45.1638 17.524 45.0264 17.4759C44.8889 17.4279 44.7658 17.3451 44.6688 17.2354C44.5718 17.1257 44.5042 16.9928 44.4722 16.8493C44.4403 16.7057 44.4451 16.5563 44.4863 16.4152L48.7823 1.1084C48.8269 0.965819 48.8341 0.81398 48.8032 0.667748C48.7723 0.521515 48.7044 0.3859 48.6061 0.274176C48.5079 0.162452 48.3826 0.0784481 48.2426 0.0303874C48.1026 -0.0176732 47.9527 -0.028144 47.8075 1.55954e-07Z" fill="#ADADAD"/>
</g>
<defs>
<clipPath id="clip0_1_96">
<rect width="66" height="68" fill="white"/>
</clipPath>
</defs>
</svg>
